<svg xmlns="http://www.w3.org/2000/svg" version="1.1" xmlns:xlink="http://www.w3.org/1999/xlink" xmlns:svgjs="http://svgjs.com/svgjs" width="1920" height="1080" preserveAspectRatio="none" viewBox="0 0 1920 1080"><g mask="url(&quot;#SvgjsMask1001&quot;)" fill="none"><rect width="1920" height="1080" x="0" y="0" fill="rgba(51, 65, 85, 1)"></rect><path d="M270 162C179.6 188.08 121.67 193.46 108 270C87.92 382.46 142.73 412.36 202.5 540C223.73 585.33 225.72 615.94 270 615.94C380.97 615.94 392.45 580.25 513 540C527.45 535.18 525.22 529.37 540 525.79C673.72 493.37 721.1 541.93 810 468C874.89 414.04 847.59 364.91 847.59 270C847.59 239.39 839.04 228.72 810 216.96C685.24 166.41 677.16 159.34 540 145.38C407.16 131.86 395.6 125.77 270 162" stroke="rgba(51, 121, 194, 0.58)" stroke-width="2"></path><path d="M1035 0C1061.5 3.1 1058.38 31.56 1080 31.56C1098.75 31.56 1092.91 2.67 1115.74 0C1227.91 -13.11 1232.87 0 1350 0C1485 0 1485 0 1620 0C1755 0 1755 0 1890 0C2025 0 2087.92 -62.92 2160 0C2222.92 54.93 2221.23 202.2 2160 235.71C2086.23 276.07 2005.92 136.45 1890 147.74C1829.9 153.59 1807.97 206.77 1807.97 270C1807.97 345.05 1824.92 419.04 1890 424.29C2000.94 433.25 2085.45 266.47 2160 298.42C2220.45 324.33 2160 419.21 2160 540C2160 675 2160 675 2160 810C2160 912.96 2199.12 937.7 2160 1015.93C2131.62 1072.7 2095.92 1063.17 2025 1080C1960.92 1095.2 1957.5 1080 1890 1080C1755 1080 1755 1080 1620 1080C1485 1080 1485 1080 1350 1080C1215 1080 1215 1080 1080 1080C957.46 1080 953.56 1090.03 834.92 1080C818.56 1078.62 825.58 1057.18 810 1057.18C759.12 1057.18 756.71 1075.38 702 1080C621.71 1086.79 621 1080 540 1080C499.5 1080 494.3 1096.85 459 1080C359.3 1032.42 352.44 951.14 270 951.14C213.64 951.14 243.91 1050.17 181.41 1080C108.91 1114.6 36.45 1134.25 0 1080C-54.25 999.25 0 945 0 810C0 675 0 675 0 540C0 405 0 405 0 270C0 135 -67.5 67.5 0 0C67.5 -67.5 135 0 270 0C405 0 405 0 540 0C675 0 675 0 810 0C922.5 0 926.5 -12.68 1035 0" stroke="rgba(51, 121, 194, 0.58)" stroke-width="2"></path><path d="M1350 466.36C1272.08 466.36 1182.09 471.75 1170 540C1151.66 643.57 1222.65 678.96 1289.15 810C1312.65 856.31 1320.25 894.71 1350 894.71C1379.1 894.71 1400.67 858.6 1406.84 810C1423.17 681.25 1416.54 670.23 1395 540C1388.12 498.41 1384.58 466.36 1350 466.36" stroke="rgba(51, 121, 194, 0.58)" stroke-width="2"></path><path d="M270 12C239.81 12 210 3.03 210 0C210 -2.97 240 0 270 0C315 0 360 -2.99 360 0C360 3.01 314.81 12 270 12" stroke="rgba(51, 121, 194, 0.58)" stroke-width="2"></path><path d="M810 96.43C706.33 96.43 585 25.12 585 0C585 -23.09 697.5 0 810 0C860 0 910 -20.18 910 0C910 28.03 868.83 96.43 810 96.43" stroke="rgba(51, 121, 194, 0.58)" stroke-width="2"></path><path d="M933.04 270C933.04 191.52 1004.02 191.98 1080 119.22C1145 56.98 1137.84 34.07 1215 0C1272.84 -25.54 1282.5 0 1350 0C1485 0 1485 0 1620 0C1755 0 1755 0 1890 0C2025 0 2068.55 -43.55 2160 0C2203.55 20.74 2201.38 125.45 2160 128.57C2066.38 135.64 1997.57 -14.4 1890 20.38C1778.83 56.32 1764 133.17 1722.53 270C1685.25 392.98 1680.09 444.34 1732.5 540C1763.82 597.17 1816.12 575.66 1890 575.66C1913.77 575.66 1906.54 554.84 1927.8 540C2041.54 460.63 2085.08 387.24 2160 387.24C2201.18 387.24 2160 463.62 2160 540C2160 675 2160 675 2160 810C2160 855.76 2191.71 875.94 2160 901.53C2056.71 984.88 2023.45 961.73 1890 1027.89C1843.45 1050.97 1849.44 1070.46 1800 1080C1714.44 1096.51 1710 1080 1620 1080C1485 1080 1485 1080 1350 1080C1215 1080 1215 1080 1080 1080C1009.39 1080 999.14 1106.36 938.77 1080C864.14 1047.41 875.7 1019.56 810 962.11C721.31 884.56 630 889.46 630 810C630 724.88 701.45 670.53 810 632.95C926.45 592.64 967.89 602.55 1080 654.23C1159.93 691.07 1137.46 731.81 1194.08 810C1272.46 918.23 1273.77 1027.06 1350 1027.06C1424.56 1027.06 1439.9 926.8 1495.66 810C1556.15 683.27 1602.11 667.04 1582.5 540C1560.43 397.04 1504.31 399.2 1412.31 270C1388.06 235.95 1379.13 213.49 1350 213.49C1324.61 213.49 1330.83 246 1303.27 270C1195.83 363.57 1182.33 448.62 1080 448.62C997.22 448.62 933.04 356.22 933.04 270" stroke="rgba(51, 121, 194, 0.58)" stroke-width="2"></path><path d="M0 504C3.9 504 2.48 525.18 15 540C131.73 678.18 242.44 667.63 258.51 810C272.91 937.63 180.77 970.51 75.94 1080C51.52 1105.51 8.34 1109.63 0 1080C-29.63 974.63 0 945 0 810C0 675 0 675 0 540C0 522 -3.6 504 0 504" stroke="rgba(51, 121, 194, 0.58)" stroke-width="2"></path><path d="M1018.48 270C1018.48 237.15 1046.01 206.88 1080 206.88C1123.5 206.88 1173.46 236.55 1173.46 270C1173.46 305.5 1122.84 344.77 1080 344.77C1045.35 344.77 1018.48 306.09 1018.48 270" stroke="rgba(51, 121, 194, 0.58)" stroke-width="2"></path><path d="M1350 56.51C1324.12 56.51 1314.26 18.41 1314.26 0C1314.26 -9.84 1332.13 0 1350 0C1407.86 0 1465.71 -13.37 1465.71 0C1465.71 14.88 1399.84 56.51 1350 56.51" stroke="rgba(51, 121, 194, 0.58)" stroke-width="2"></path><path d="M1585.38 270C1585.38 231.67 1606.66 190.59 1620 190.59C1632.51 190.59 1637.09 230.7 1637.09 270C1637.09 297.4 1632.12 324 1620 324C1606.27 324 1585.38 298.38 1585.38 270" stroke="rgba(51, 121, 194, 0.58)" stroke-width="2"></path><path d="M2160 21.43C2141.21 21.43 2108.08 5.57 2108.08 0C2108.08 -5.15 2141.62 -7.58 2160 0C2167.58 3.13 2167.17 21.43 2160 21.43" stroke="rgba(51, 121, 194, 0.58)" stroke-width="2"></path><path d="M2062.8 540C2107.18 502.69 2128.64 476.05 2160 476.05C2177.24 476.05 2160 508.03 2160 540C2160 645.65 2178.94 652.82 2160 751.3C2152.98 787.82 2141.34 790.51 2108.08 810C2006.34 869.6 2000.25 862.56 1890 909.47C1756.21 966.4 1708.59 1046.53 1620 1017.69C1555.83 996.8 1584.47 912 1584.47 810C1584.47 763.16 1579.76 734.09 1620 720C1732.52 680.6 1772.12 750.94 1890 703.02C1993.52 660.94 1972.18 616.18 2062.8 540" stroke="rgba(51, 121, 194, 0.58)" stroke-width="2"></path><path d="M0 684.42C33.06 684.42 114.89 740.88 114.89 810C114.89 903.67 30.77 1010 0 1010C-26.68 1010 0 910 0 810C0 747.21 -24.39 684.42 0 684.42" stroke="rgba(51, 121, 194, 0.58)" stroke-width="2"></path><path d="M742.5 810C742.5 778.08 766.55 746.95 810 743.61C935.3 733.97 950.73 754.34 1080 784.04C1095.24 787.54 1093.83 794.86 1099.01 810C1144.45 942.84 1188.25 980.64 1181.25 1080C1178.74 1115.64 1130.63 1080 1080 1080C1061.31 1080 1056.93 1091.28 1042.62 1080C921.93 984.8 927.21 972.49 810 867.04C777.15 837.49 742.5 839.79 742.5 810" stroke="rgba(51, 121, 194, 0.58)" stroke-width="2"></path></g><defs><mask id="SvgjsMask1001"><rect width="1920" height="1080" fill="#ffffff"></rect></mask></defs></svg>