<?xml version="1.0" encoding="UTF-8"?>
<svg width="82px" height="70px" viewBox="0 0 82 70" version="1.1" xmlns="http://www.w3.org/2000/svg" xmlns:xlink="http://www.w3.org/1999/xlink">
    <!-- Generator: Sketch 63.1 (92452) - https://sketch.com -->
    <title>clouds</title>
    <desc>Created with Sketch.</desc>
    <g id="Page-1" stroke="none" stroke-width="1" fill="none" fill-rule="evenodd">
        <g id="Granby---UI-Kit" transform="translate(-1293.000000, -2795.000000)" fill="#FFFFFF" fill-rule="nonzero">
            <g id="clouds" transform="translate(1293.000000, 2795.000000)">
                <path d="M81.9047963,36.6286384 C81.9047963,30.9844786 78.1575965,26.1182388 72.9031967,24.5585589 C72.2036768,15.2238393 64.3846371,7.84303965 54.8740775,7.84303965 C52.0823977,7.84303965 49.3694378,8.47631962 46.9027179,9.69135957 C45.289758,7.17903968 43.1511981,5.03359977 40.6190382,3.40463985 C37.2628783,1.24543994 33.3708785,0.104319995 29.3639987,0.104319995 C23.8345589,0.104319995 18.6262392,2.2473599 14.6985593,6.13871973 C11.1433595,9.66079957 9.0099196,14.2455994 8.59855962,19.1823991 C6.29055972,20.3759991 4.31167981,22.114559 2.81711987,24.2740789 C0.974079956,26.9369588 -9.09494661e-15,30.0620787 -9.09494661e-15,33.3111985 C-9.09494661e-15,40.7500782 5.12959977,47.0124779 12.0369595,48.7495978 C9.21007959,50.9371177 7.45167967,54.3513576 7.45167967,58.1163174 C7.45167967,64.6475171 12.7651194,69.9609569 19.2963191,69.9609569 L60.9911973,69.9609569 C68.3951969,69.9609569 74.4345567,64.0081571 74.4535967,56.6913575 C74.4611167,53.8315176 73.5716767,51.1438377 71.9982368,48.9359978 C77.6556765,47.6985579 81.9047963,42.6518381 81.9047963,36.6286384 Z M60.9910373,65.1607971 L19.2963191,65.1607971 C15.4119993,65.1607971 12.2516795,62.0006372 12.2516795,58.1161574 C12.2516795,54.8654375 14.4532794,52.0529577 17.6055992,51.2771177 L19.7297591,50.7542377 L19.4054391,48.5908778 C19.3279991,48.0740779 19.2886391,47.5481579 19.2886391,47.0281579 C19.2886391,41.2742382 23.9697589,36.5931184 29.7238387,36.5931184 C32.3755186,36.5931184 34.9039984,37.5911983 36.8438384,39.4035182 L38.7795183,41.2119982 L40.3887982,39.1076783 C42.7724781,35.9905584 46.3854379,34.2028785 50.3009578,34.2028785 C57.1110374,34.2028785 62.7068772,39.7420782 62.7751972,46.5507179 L62.7913572,48.1617578 L64.2884771,48.7569578 C67.556797,50.0563178 69.6627169,53.1657576 69.6534674,56.6785575 C69.6412769,61.3556773 65.7553571,65.1607971 60.9910373,65.1607971 L60.9910373,65.1607971 Z M69.3046369,44.428798 L67.428157,44.428798 C66.937437,40.6387182 65.2151971,37.1363183 62.4583972,34.4054385 C59.2023974,31.1795186 54.8847975,29.4030387 50.3009578,29.4030387 C45.699198,29.4030387 41.3999981,31.1851186 38.1875183,34.3609585 C35.6974384,32.6924785 32.7662385,31.7931186 29.7239987,31.7931186 C22.231999,31.7931186 15.9862393,37.2289583 14.7223993,44.363678 C9.15215959,43.765278 4.79999979,39.0375983 4.79999979,33.3111985 C4.79999979,28.7323187 7.55279966,24.6793589 11.8129595,22.985759 L13.3100794,22.390559 L13.3263994,20.7796791 C13.3691194,16.5297593 15.0563193,12.5411194 18.0771192,9.54831957 C21.0999991,6.55343971 25.1086389,4.90415978 29.3643187,4.90415978 C32.4483185,4.90415978 35.4422384,5.78143974 38.0222383,7.44127967 C40.5375982,9.0595196 42.5483181,11.3379195 43.837118,14.0303994 L45.048958,16.5620793 L47.3617579,14.9719993 C49.5775978,13.4484794 52.1753577,12.6431994 54.8745575,12.6431994 C62.1972772,12.6431994 68.154557,18.6006392 68.154557,25.9231988 C68.154557,26.0700788 68.151197,26.2291188 68.144157,26.4236788 L68.063037,28.6292787 L70.2540769,28.8945587 C74.1599967,29.3673587 77.1052766,32.6924785 77.1052766,36.6289584 C77.1052766,40.9297582 73.6057567,44.428798 69.3046369,44.428798 L69.3046369,44.428798 Z" id="Shape"></path>
            </g>
        </g>
    </g>
</svg>