<?xml version="1.0" encoding="UTF-8"?>
<svg width="30px" height="30px" viewBox="0 0 30 30" version="1.1" xmlns="http://www.w3.org/2000/svg" xmlns:xlink="http://www.w3.org/1999/xlink">
    <!-- Generator: Sketch 63.1 (92452) - https://sketch.com -->
    <title>Group 24</title>
    <desc>Created with Sketch.</desc>
    <g id="Page-1" stroke="none" stroke-width="1" fill="none" fill-rule="evenodd">
        <g id="Granby---UI---Home-Copy" transform="translate(-1295.000000, -3220.000000)" fill="#FFFFFF" fill-rule="nonzero">
            <g id="Group-21" transform="translate(-1.000000, 3060.000000)">
                <g id="Social;">
                    <g id="Group-24" transform="translate(1296.000000, 160.000000)">
                        <path d="M20.4096817,14.5096113 C20.4096817,17.7679363 17.7684066,20.4092114 14.5100816,20.4092114 C11.2517565,20.4092114 8.61048143,17.7679363 8.61048143,14.5096113 C8.61048143,11.2512862 11.2517565,8.61001115 14.5100816,8.61001115 C17.7684066,8.61001115 20.4096817,11.2512862 20.4096817,14.5096113 Z" id="Path"></path>
                        <path d="M28.3071693,4.07149549 C28.0235709,3.30300479 27.5711303,2.60741255 26.9832396,2.03645323 C26.4122803,1.44856253 25.7171583,0.996121956 24.9481973,0.712523482 C24.324563,0.47031251 23.3877005,0.182010971 21.6621239,0.103468752 C19.7954536,0.018342218 19.2357817,1.02659217e-14 14.5100816,1.02659217e-14 C9.78391117,1.02659217e-14 9.22423923,0.0178719356 7.35803919,0.10299847 C5.63246262,0.182010971 4.69512982,0.47031251 4.07196577,0.712523482 C3.30300479,0.996121956 2.60741255,1.44856253 2.03692351,2.03645323 C1.44903281,2.60741255 0.996592238,3.3025345 0.712523482,4.07149549 C0.47031251,4.69512982 0.182010971,5.63246262 0.103468752,7.35803919 C0.018342218,9.22423923 5.13296083e-15,9.78391117 5.13296083e-15,14.5100816 C5.13296083e-15,19.2357817 0.018342218,19.7954536 0.103468752,21.6621239 C0.182010971,23.3877005 0.47031251,24.324563 0.712523482,24.9481975 C0.996592238,25.7171584 1.44856253,26.4122803 2.03645323,26.9832396 C2.60741255,27.5711303 3.30253438,28.023571 4.07149537,28.3071693 C4.69512982,28.5498506 5.63246262,28.8381521 7.35803919,28.9166944 C9.22423923,29.001821 9.78344089,29.0196928 14.5096113,29.0196928 C19.2362519,29.0196928 19.7959239,29.001821 21.6616536,28.9166944 C23.3872302,28.8381521 24.324563,28.5498506 24.9481973,28.3071693 C26.4917631,27.7117538 27.7117538,26.4917631 28.3071693,24.9481975 C28.5493803,24.324563 28.8376819,23.3877005 28.9166944,21.6621239 C29.0018209,19.7954536 29.0196928,19.2357817 29.0196928,14.5100816 C29.0196928,9.78391117 29.0018209,9.22423923 28.9166944,7.35803919 C28.8381521,5.63246262 28.5498506,4.69512982 28.3071693,4.07149549 L28.3071693,4.07149549 Z M14.5100816,23.5979302 C9.49043617,23.5979302 5.42129233,19.5292567 5.42129233,14.5096113 C5.42129233,9.48996588 9.49043617,5.42129233 14.5100816,5.42129233 C19.5292567,5.42129233 23.5984005,9.48996588 23.5984005,14.5096113 C23.5984005,19.5292567 19.5292567,23.5979302 14.5100816,23.5979302 Z M23.9577193,7.18590487 C22.7847598,7.18590487 21.833788,6.23493303 21.833788,5.06197357 C21.833788,3.88901411 22.7847598,2.93804228 23.9577193,2.93804228 C25.1306787,2.93804228 26.0816505,3.88901411 26.0816505,5.06197357 C26.0811803,6.23493303 25.1306787,7.18590487 23.9577193,7.18590487 Z" id="Shape"></path>
                    </g>
                </g>
            </g>
        </g>
    </g>
</svg>